# 3ds Max Wavefront OBJ Exporter v0.97b - (c)2007 guruware
# 创建的文件:21.02.2019 18:54:01

mtllib map.mtl

#
# object Box002
#

v  -1012.0594 10.9894 -258.7853
v  -420.3634 10.9894 -258.7853
v  -420.3634 10.9894 -587.5053
v  -1012.0594 10.9894 -587.5053
v  -1012.0594 -0.8144 -258.7853
v  -420.3634 -0.8144 -258.7853
v  -420.3634 -0.8144 -587.5053
v  -1012.0594 -0.8144 -587.5053
v  -397.5036 10.9894 -258.7853
v  466.3899 10.9894 -258.7853
v  466.3899 10.9894 -587.5053
v  -397.5036 10.9894 -587.5053
v  -397.5036 -0.8144 -258.7853
v  466.3899 0.6088 -258.7853
v  466.3899 0.6088 -587.5053
v  -397.5036 -0.8144 -587.5053
v  479.7094 10.9894 -258.7853
v  1024.5272 10.9894 -258.7853
v  1024.5272 10.9894 -587.5053
v  479.7094 10.9894 -587.5053
v  479.7094 0.6088 -258.7853
v  1024.5272 -0.8144 -258.7853
v  1024.5272 -0.8144 -587.5053
v  479.7094 0.6088 -587.5053
v  -1007.2929 10.9894 148.4565
v  -417.4391 10.9894 148.4565
v  -417.4391 10.9894 -182.7913
v  -1007.2929 10.9894 -182.7913
v  -1007.2929 -0.8144 148.4565
v  -417.4391 -0.8144 148.4565
v  -417.4391 -0.8144 -182.7913
v  -1007.2929 -0.8144 -182.7913
v  -348.8454 10.9894 148.4565
v  -194.9208 10.9894 148.4565
v  -194.9208 10.9894 -182.7913
v  -348.8454 10.9894 -182.7913
v  -348.8454 -0.8144 148.4565
v  -194.9208 0.6088 148.4565
v  -194.9208 0.6088 -182.7913
v  -348.8454 -0.8144 -182.7913
v  -174.6755 10.9894 148.4565
v  463.6361 10.9894 148.4565
v  463.6361 10.9894 -182.7913
v  -174.6755 10.9894 -182.7913
v  -174.6755 0.6088 148.4565
v  463.6361 0.6088 148.4565
v  463.6361 0.6088 -182.7913
v  -174.6755 0.6088 -182.7913
v  479.7094 10.9894 149.6374
v  836.8693 10.9894 149.6374
v  836.8693 10.9894 -181.6104
v  479.7094 10.9894 -181.6104
v  479.7094 0.6088 149.6374
v  836.8693 -0.8144 149.6374
v  836.8693 -0.8144 -181.6104
v  479.7094 0.6088 -181.6104
v  -1015.7592 10.9894 512.4978
v  -850.5865 10.9894 512.4978
v  -850.5865 10.9894 180.0598
v  -1015.7592 10.9894 180.0598
v  -1015.7592 -0.8144 512.4978
v  -850.5865 -0.8144 512.4978
v  -850.5865 -0.8144 180.0598
v  -1015.7592 -0.8144 180.0598
v  -623.2462 10.9894 507.5775
v  -417.4429 10.9894 507.5775
v  -417.4429 10.9894 182.5454
v  -623.2462 10.9894 182.5454
v  -623.2462 -0.8144 507.5775
v  -417.4429 -0.8144 507.5775
v  -417.4429 -0.8144 182.5454
v  -623.2462 -0.8144 182.5454
v  -348.1567 10.9894 507.5775
v  834.8512 10.9894 507.5775
v  834.8512 10.9894 182.5454
v  -348.1567 10.9894 182.5454
v  -348.1567 -0.8144 507.5775
v  834.8512 -0.8144 507.5775
v  834.8512 -0.8144 182.5454
v  -348.1567 -0.8144 182.5454
v  897.1252 10.9894 507.5775
v  1026.9678 10.9894 507.5775
v  1026.9678 10.9894 182.5454
v  897.1252 10.9894 182.5454
v  897.1252 -0.8144 507.5775
v  1026.9678 -0.8144 507.5775
v  1026.9678 -0.8144 182.5454
v  897.1252 -0.8144 182.5454
v  -1015.7592 10.9894 866.6377
v  -645.3409 10.9894 866.6377
v  -645.3409 10.9894 562.8456
v  -1015.7592 10.9894 562.8456
v  -1015.7592 -0.8144 866.6377
v  -645.3409 -0.8144 866.6377
v  -645.3409 -0.8144 562.8456
v  -1015.7592 -0.8144 562.8456
v  -623.2462 10.9894 866.6377
v  -417.4429 10.9894 866.6377
v  -417.4429 10.9894 562.8456
v  -623.2462 10.9894 562.8456
v  -623.2462 -0.8144 866.6377
v  -417.4429 -0.8144 866.6377
v  -417.4429 -0.8144 562.8456
v  -623.2462 -0.8144 562.8456
v  -348.1567 10.9894 866.6377
v  741.2515 10.9894 866.6377
v  741.2515 10.9894 581.8362
v  -348.1567 10.9894 581.8362
v  -348.1567 -0.8144 866.6377
v  741.2515 -0.8144 866.6377
v  741.2515 -0.8144 581.8362
v  -348.1567 -0.8144 581.8362
v  897.1252 10.9894 866.6377
v  1026.8474 10.9894 866.6377
v  1026.8474 10.9894 576.5570
v  897.1252 10.9894 576.5570
v  897.1252 -0.8144 866.6377
v  1026.8474 -0.8144 866.6377
v  1026.8474 -0.8144 576.5570
v  897.1252 -0.8144 576.5570
v  760.1902 10.9894 866.6377
v  839.0984 10.9894 866.6377
v  839.0984 10.9894 581.4625
v  760.1902 10.9894 581.4625
v  895.7356 10.9894 154.0742
v  1024.2987 10.9894 154.0742
v  1024.2987 10.9894 -187.8061
v  895.7356 10.9894 -187.8061
v  895.7356 -0.8144 154.0742
v  1024.2987 -0.8144 154.0742
v  1024.2987 -0.8144 -187.8061
v  895.7356 -0.8144 -187.8061
v  -831.2595 10.9894 512.4978
v  -646.9855 10.9894 512.4978
v  -646.9855 10.9894 180.0598
v  -831.2595 10.9894 180.0598
v  -831.2595 -0.8144 512.4978
v  -646.9855 -0.8144 512.4978
v  -646.9855 -0.8144 180.0598
v  -831.2595 -0.8144 180.0598
# 140 vertices

vn 0.0000 1.0000 -0.0000
vn 0.0000 0.0000 1.0000
vn 1.0000 0.0000 -0.0000
vn 0.0000 0.0000 -1.0000
vn -1.0000 0.0000 -0.0000
# 5 vertex normals

vt 0.2961 0.6358 0.0000
vt 0.2961 0.7906 0.0000
vt 0.0112 0.7906 0.0000
vt 0.0112 0.6358 0.0000
vt 0.1784 0.9185 0.0000
vt 0.1798 0.9185 0.0000
vt 0.1798 0.9458 0.0000
vt 0.1784 0.9458 0.0000
vt 0.0868 0.9674 0.0000
vt 0.0868 0.9668 0.0000
vt 0.1279 0.9668 0.0000
vt 0.1279 0.9674 0.0000
vt 0.1763 0.9185 0.0000
vt 0.1778 0.9185 0.0000
vt 0.1778 0.9458 0.0000
vt 0.1763 0.9458 0.0000
vt 0.0868 0.9658 0.0000
vt 0.0868 0.9653 0.0000
vt 0.1279 0.9653 0.0000
vt 0.1279 0.9658 0.0000
vt 0.7204 0.6321 0.0000
vt 0.7204 0.7925 0.0000
vt 0.3065 0.7925 0.0000
vt 0.3065 0.6321 0.0000
vt 0.1284 0.9193 0.0000
vt 0.1299 0.9193 0.0000
vt 0.1297 0.9591 0.0000
vt 0.1284 0.9591 0.0000
vt 0.0868 0.9650 0.0000
vt 0.0868 0.9645 0.0000
vt 0.1279 0.9645 0.0000
vt 0.1279 0.9650 0.0000
vt 0.1264 0.9193 0.0000
vt 0.1277 0.9193 0.0000
vt 0.1278 0.9591 0.0000
vt 0.1264 0.9591 0.0000
vt 0.0868 0.9643 0.0000
vt 0.0868 0.9638 0.0000
vt 0.1279 0.9638 0.0000
vt 0.1279 0.9643 0.0000
vt 0.7274 0.6301 0.0000
vt 0.9906 0.6301 0.0000
vt 0.9906 0.7915 0.0000
vt 0.7274 0.7915 0.0000
vt 0.0015 0.9992 0.0000
vt 0.0015 0.9987 0.0000
vt 0.0696 0.9986 0.0000
vt 0.0696 0.9992 0.0000
vt 0.0868 0.9635 0.0000
vt 0.0868 0.9630 0.0000
vt 0.1279 0.9630 0.0000
vt 0.1279 0.9635 0.0000
vt 0.2200 0.9453 0.0000
vt 0.2215 0.9453 0.0000
vt 0.2213 0.9704 0.0000
vt 0.2200 0.9704 0.0000
vt 0.0868 0.9665 0.0000
vt 0.0868 0.9661 0.0000
vt 0.1279 0.9661 0.0000
vt 0.1279 0.9665 0.0000
vt 0.0101 0.4380 0.0000
vt 0.2965 0.4380 0.0000
vt 0.2965 0.5964 0.0000
vt 0.0101 0.5964 0.0000
vt 0.2179 0.9453 0.0000
vt 0.2194 0.9453 0.0000
vt 0.2194 0.9725 0.0000
vt 0.2179 0.9725 0.0000
vt 0.0005 0.9827 0.0000
vt 0.0005 0.9822 0.0000
vt 0.0419 0.9822 0.0000
vt 0.0419 0.9827 0.0000
vt 0.2137 0.9453 0.0000
vt 0.2152 0.9453 0.0000
vt 0.2152 0.9725 0.0000
vt 0.2137 0.9725 0.0000
vt 0.0419 0.9814 0.0000
vt 0.0419 0.9819 0.0000
vt 0.0005 0.9819 0.0000
vt 0.0005 0.9814 0.0000
vt 0.4026 0.4381 0.0000
vt 0.4026 0.5961 0.0000
vt 0.3291 0.5961 0.0000
vt 0.3291 0.4381 0.0000
vt 0.2075 0.9649 0.0000
vt 0.2090 0.9649 0.0000
vt 0.2088 0.9720 0.0000
vt 0.2075 0.9720 0.0000
vt 0.0868 0.9627 0.0000
vt 0.0868 0.9622 0.0000
vt 0.1282 0.9622 0.0000
vt 0.1282 0.9627 0.0000
vt 0.0858 0.9699 0.0000
vt 0.0871 0.9699 0.0000
vt 0.0873 0.9770 0.0000
vt 0.0858 0.9770 0.0000
vt 0.0868 0.9612 0.0000
vt 0.0868 0.9607 0.0000
vt 0.1282 0.9607 0.0000
vt 0.1282 0.9612 0.0000
vt 0.7207 0.4370 0.0000
vt 0.7207 0.5993 0.0000
vt 0.4109 0.5993 0.0000
vt 0.4109 0.4370 0.0000
vt 0.1326 0.9193 0.0000
vt 0.1339 0.9193 0.0000
vt 0.1339 0.9487 0.0000
vt 0.1326 0.9487 0.0000
vt 0.2127 0.9833 0.0000
vt 0.2140 0.9833 0.0000
vt 0.2140 0.9986 0.0000
vt 0.2127 0.9986 0.0000
vt 0.1318 0.9487 0.0000
vt 0.1305 0.9487 0.0000
vt 0.1305 0.9193 0.0000
vt 0.1318 0.9193 0.0000
vt 0.0868 0.9596 0.0000
vt 0.0868 0.9591 0.0000
vt 0.1282 0.9591 0.0000
vt 0.1282 0.9596 0.0000
vt 0.7280 0.4350 0.0000
vt 0.8997 0.4350 0.0000
vt 0.8997 0.6001 0.0000
vt 0.7280 0.6001 0.0000
vt 0.2158 0.9453 0.0000
vt 0.2171 0.9453 0.0000
vt 0.2173 0.9701 0.0000
vt 0.2158 0.9701 0.0000
vt 0.1282 0.9599 0.0000
vt 0.1282 0.9605 0.0000
vt 0.0868 0.9605 0.0000
vt 0.0868 0.9599 0.0000
vt 0.2111 0.9701 0.0000
vt 0.2096 0.9701 0.0000
vt 0.2098 0.9453 0.0000
vt 0.2111 0.9453 0.0000
vt 0.0868 0.9619 0.0000
vt 0.0868 0.9615 0.0000
vt 0.1282 0.9615 0.0000
vt 0.1282 0.9619 0.0000
vt 0.0088 0.2636 0.0000
vt 0.0890 0.2636 0.0000
vt 0.0890 0.4262 0.0000
vt 0.0088 0.4262 0.0000
vt 0.2117 0.9453 0.0000
vt 0.2131 0.9453 0.0000
vt 0.2131 0.9624 0.0000
vt 0.2117 0.9624 0.0000
vt 0.1274 0.9684 0.0000
vt 0.1274 0.9689 0.0000
vt 0.0868 0.9689 0.0000
vt 0.0868 0.9684 0.0000
vt 0.0775 0.9992 0.0000
vt 0.0775 0.9986 0.0000
vt 0.1238 0.9986 0.0000
vt 0.1238 0.9992 0.0000
vt 0.0442 0.9812 0.0000
vt 0.0442 0.9806 0.0000
vt 0.0848 0.9806 0.0000
vt 0.0848 0.9812 0.0000
vt 0.2968 0.2639 0.0000
vt 0.2968 0.4236 0.0000
vt 0.1977 0.4236 0.0000
vt 0.1977 0.2639 0.0000
vt 0.1784 0.9467 0.0000
vt 0.1784 0.9461 0.0000
vt 0.2041 0.9461 0.0000
vt 0.2041 0.9467 0.0000
vt 0.2169 0.9833 0.0000
vt 0.2183 0.9833 0.0000
vt 0.2183 0.9983 0.0000
vt 0.2169 0.9983 0.0000
vt 0.1784 0.9474 0.0000
vt 0.1784 0.9469 0.0000
vt 0.2041 0.9469 0.0000
vt 0.2041 0.9474 0.0000
vt 0.1274 0.9676 0.0000
vt 0.1274 0.9681 0.0000
vt 0.0868 0.9681 0.0000
vt 0.0868 0.9676 0.0000
vt 0.3283 0.2619 0.0000
vt 0.9003 0.2619 0.0000
vt 0.9003 0.4253 0.0000
vt 0.3283 0.4253 0.0000
vt 0.0015 0.9183 0.0000
vt 0.0015 0.9177 0.0000
vt 0.1493 0.9177 0.0000
vt 0.1493 0.9183 0.0000
vt 0.2148 0.9833 0.0000
vt 0.2163 0.9833 0.0000
vt 0.2163 0.9983 0.0000
vt 0.2148 0.9983 0.0000
vt 0.0005 0.9185 0.0000
vt 0.0020 0.9185 0.0000
vt 0.0020 0.9730 0.0000
vt 0.0005 0.9730 0.0000
vt 0.2189 0.9833 0.0000
vt 0.2204 0.9833 0.0000
vt 0.2204 0.9983 0.0000
vt 0.2189 0.9983 0.0000
vt 0.9292 0.2630 0.0000
vt 0.9900 0.2630 0.0000
vt 0.9900 0.4243 0.0000
vt 0.9292 0.4243 0.0000
vt 0.2117 0.9634 0.0000
vt 0.2131 0.9634 0.0000
vt 0.2131 0.9693 0.0000
vt 0.2117 0.9693 0.0000
vt 0.0442 0.9804 0.0000
vt 0.0442 0.9799 0.0000
vt 0.0848 0.9799 0.0000
vt 0.0848 0.9804 0.0000
vt 0.1264 0.9992 0.0000
vt 0.1264 0.9986 0.0000
vt 0.1426 0.9986 0.0000
vt 0.1426 0.9992 0.0000
vt 0.1486 0.9645 0.0000
vt 0.1472 0.9645 0.0000
vt 0.1472 0.9496 0.0000
vt 0.1486 0.9496 0.0000
vt 0.0100 0.0966 0.0000
vt 0.1883 0.0966 0.0000
vt 0.1883 0.2299 0.0000
vt 0.0100 0.2299 0.0000
vt 0.1607 0.9789 0.0000
vt 0.1607 0.9783 0.0000
vt 0.2070 0.9783 0.0000
vt 0.2070 0.9789 0.0000
vt 0.0868 0.9190 0.0000
vt 0.0868 0.9185 0.0000
vt 0.1248 0.9185 0.0000
vt 0.1248 0.9190 0.0000
vt 0.1472 0.9992 0.0000
vt 0.1472 0.9986 0.0000
vt 0.1934 0.9986 0.0000
vt 0.1934 0.9992 0.0000
vt 0.2075 0.9488 0.0000
vt 0.2090 0.9488 0.0000
vt 0.2090 0.9628 0.0000
vt 0.2075 0.9628 0.0000
vt 0.2974 0.0966 0.0000
vt 0.2974 0.2302 0.0000
vt 0.1965 0.2302 0.0000
vt 0.1965 0.0966 0.0000
vt 0.0463 0.9190 0.0000
vt 0.0463 0.9185 0.0000
vt 0.0720 0.9185 0.0000
vt 0.0720 0.9190 0.0000
vt 0.1368 0.9190 0.0000
vt 0.1368 0.9185 0.0000
vt 0.1747 0.9185 0.0000
vt 0.1747 0.9190 0.0000
vt 0.1784 0.9482 0.0000
vt 0.1784 0.9476 0.0000
vt 0.2041 0.9476 0.0000
vt 0.2041 0.9482 0.0000
vt 0.0047 0.9190 0.0000
vt 0.0047 0.9185 0.0000
vt 0.0426 0.9185 0.0000
vt 0.0426 0.9190 0.0000
vt 0.8539 0.0946 0.0000
vt 0.8539 0.2308 0.0000
vt 0.3301 0.2308 0.0000
vt 0.3301 0.0946 0.0000
vt 0.0806 0.9193 0.0000
vt 0.0821 0.9193 0.0000
vt 0.0821 0.9694 0.0000
vt 0.0806 0.9694 0.0000
vt 0.1451 0.9657 0.0000
vt 0.1466 0.9657 0.0000
vt 0.1466 0.9788 0.0000
vt 0.1451 0.9788 0.0000
vt 0.0827 0.9193 0.0000
vt 0.0842 0.9193 0.0000
vt 0.0842 0.9694 0.0000
vt 0.0827 0.9694 0.0000
vt 0.0442 0.9827 0.0000
vt 0.0442 0.9822 0.0000
vt 0.0798 0.9822 0.0000
vt 0.0798 0.9827 0.0000
vt 0.9295 0.0939 0.0000
vt 0.9896 0.0939 0.0000
vt 0.9896 0.2314 0.0000
vt 0.9295 0.2314 0.0000
vt 0.2117 0.9710 0.0000
vt 0.2131 0.9710 0.0000
vt 0.2131 0.9770 0.0000
vt 0.2117 0.9770 0.0000
vt 0.1241 0.9787 0.0000
vt 0.1241 0.9792 0.0000
vt 0.0879 0.9792 0.0000
vt 0.0879 0.9787 0.0000
vt 0.2096 0.9710 0.0000
vt 0.2111 0.9710 0.0000
vt 0.2111 0.9770 0.0000
vt 0.2096 0.9770 0.0000
vt 0.0804 0.9814 0.0000
vt 0.0804 0.9819 0.0000
vt 0.0442 0.9819 0.0000
vt 0.0442 0.9814 0.0000
vt 0.8609 0.0942 0.0000
vt 0.9001 0.0942 0.0000
vt 0.9001 0.2312 0.0000
vt 0.8609 0.2312 0.0000
vt 0.9899 0.6000 0.0000
vt 0.9296 0.6000 0.0000
vt 0.9296 0.4357 0.0000
vt 0.9899 0.4357 0.0000
vt 0.1870 0.4249 0.0000
vt 0.0963 0.4249 0.0000
vt 0.0963 0.2649 0.0000
vt 0.1870 0.2649 0.0000
# 312 texture coords

o Box002
g Box002
usemtl 01___Default
s 2
f 1/1/1 2/2/1 3/3/1 
f 3/3/1 4/4/1 1/1/1 
s 8
f 1/5/2 5/6/2 6/7/2 
f 6/7/2 2/8/2 1/5/2 
s 16
f 2/9/3 6/10/3 7/11/3 
f 7/11/3 3/12/3 2/9/3 
s 32
f 3/13/4 7/14/4 8/15/4 
f 8/15/4 4/16/4 3/13/4 
s 64
f 4/17/5 8/18/5 5/19/5 
f 5/19/5 1/20/5 4/17/5 
s 2
f 9/21/1 10/22/1 11/23/1 
f 11/23/1 12/24/1 9/21/1 
s 8
f 9/25/2 13/26/2 14/27/2 
f 14/27/2 10/28/2 9/25/2 
s 16
f 10/29/3 14/30/3 15/31/3 
f 15/31/3 11/32/3 10/29/3 
s 32
f 11/33/4 15/34/4 16/35/4 
f 16/35/4 12/36/4 11/33/4 
s 64
f 12/37/5 16/38/5 13/39/5 
f 13/39/5 9/40/5 12/37/5 
s 2
f 17/41/1 18/42/1 19/43/1 
f 19/43/1 20/44/1 17/41/1 
s 8
f 17/45/2 21/46/2 22/47/2 
f 22/47/2 18/48/2 17/45/2 
s 16
f 18/49/3 22/50/3 23/51/3 
f 23/51/3 19/52/3 18/49/3 
s 32
f 19/53/4 23/54/4 24/55/4 
f 24/55/4 20/56/4 19/53/4 
s 64
f 20/57/5 24/58/5 21/59/5 
f 21/59/5 17/60/5 20/57/5 
s 2
f 25/61/1 26/62/1 27/63/1 
f 27/63/1 28/64/1 25/61/1 
s 8
f 25/65/2 29/66/2 30/67/2 
f 30/67/2 26/68/2 25/65/2 
s 16
f 26/69/3 30/70/3 31/71/3 
f 31/71/3 27/72/3 26/69/3 
s 32
f 27/73/4 31/74/4 32/75/4 
f 32/75/4 28/76/4 27/73/4 
s 64
f 28/77/5 32/78/5 29/79/5 
f 29/79/5 25/80/5 28/77/5 
s 2
f 33/81/1 34/82/1 35/83/1 
f 35/83/1 36/84/1 33/81/1 
s 8
f 33/85/2 37/86/2 38/87/2 
f 38/87/2 34/88/2 33/85/2 
s 16
f 34/89/3 38/90/3 39/91/3 
f 39/91/3 35/92/3 34/89/3 
s 32
f 35/93/4 39/94/4 40/95/4 
f 40/95/4 36/96/4 35/93/4 
s 64
f 36/97/5 40/98/5 37/99/5 
f 37/99/5 33/100/5 36/97/5 
s 2
f 41/101/1 42/102/1 43/103/1 
f 43/103/1 44/104/1 41/101/1 
s 8
f 41/105/2 45/106/2 46/107/2 
f 46/107/2 42/108/2 41/105/2 
s 16
f 42/109/3 46/110/3 47/111/3 
f 47/111/3 43/112/3 42/109/3 
s 32
f 43/113/4 47/114/4 48/115/4 
f 48/115/4 44/116/4 43/113/4 
s 64
f 44/117/5 48/118/5 45/119/5 
f 45/119/5 41/120/5 44/117/5 
s 2
f 49/121/1 50/122/1 51/123/1 
f 51/123/1 52/124/1 49/121/1 
s 8
f 49/125/2 53/126/2 54/127/2 
f 54/127/2 50/128/2 49/125/2 
s 16
f 50/129/3 54/130/3 55/131/3 
f 55/131/3 51/132/3 50/129/3 
s 32
f 51/133/4 55/134/4 56/135/4 
f 56/135/4 52/136/4 51/133/4 
s 64
f 52/137/5 56/138/5 53/139/5 
f 53/139/5 49/140/5 52/137/5 
s 2
f 57/141/1 58/142/1 59/143/1 
f 59/143/1 60/144/1 57/141/1 
s 8
f 57/145/2 61/146/2 62/147/2 
f 62/147/2 58/148/2 57/145/2 
s 16
f 58/149/3 62/150/3 63/151/3 
f 63/151/3 59/152/3 58/149/3 
s 32
f 59/153/4 63/154/4 64/155/4 
f 64/155/4 60/156/4 59/153/4 
s 64
f 60/157/5 64/158/5 61/159/5 
f 61/159/5 57/160/5 60/157/5 
s 2
f 65/161/1 66/162/1 67/163/1 
f 67/163/1 68/164/1 65/161/1 
s 8
f 65/165/2 69/166/2 70/167/2 
f 70/167/2 66/168/2 65/165/2 
s 16
f 66/169/3 70/170/3 71/171/3 
f 71/171/3 67/172/3 66/169/3 
s 32
f 67/173/4 71/174/4 72/175/4 
f 72/175/4 68/176/4 67/173/4 
s 64
f 68/177/5 72/178/5 69/179/5 
f 69/179/5 65/180/5 68/177/5 
s 2
f 73/181/1 74/182/1 75/183/1 
f 75/183/1 76/184/1 73/181/1 
s 8
f 73/185/2 77/186/2 78/187/2 
f 78/187/2 74/188/2 73/185/2 
s 16
f 74/189/3 78/190/3 79/191/3 
f 79/191/3 75/192/3 74/189/3 
s 32
f 75/193/4 79/194/4 80/195/4 
f 80/195/4 76/196/4 75/193/4 
s 64
f 76/197/5 80/198/5 77/199/5 
f 77/199/5 73/200/5 76/197/5 
s 2
f 81/201/1 82/202/1 83/203/1 
f 83/203/1 84/204/1 81/201/1 
s 8
f 81/205/2 85/206/2 86/207/2 
f 86/207/2 82/208/2 81/205/2 
s 16
f 82/209/3 86/210/3 87/211/3 
f 87/211/3 83/212/3 82/209/3 
s 32
f 83/213/4 87/214/4 88/215/4 
f 88/215/4 84/216/4 83/213/4 
s 64
f 84/217/5 88/218/5 85/219/5 
f 85/219/5 81/220/5 84/217/5 
s 2
f 89/221/1 90/222/1 91/223/1 
f 91/223/1 92/224/1 89/221/1 
s 8
f 89/225/2 93/226/2 94/227/2 
f 94/227/2 90/228/2 89/225/2 
s 16
f 90/229/3 94/230/3 95/231/3 
f 95/231/3 91/232/3 90/229/3 
s 32
f 91/233/4 95/234/4 96/235/4 
f 96/235/4 92/236/4 91/233/4 
s 64
f 92/237/5 96/238/5 93/239/5 
f 93/239/5 89/240/5 92/237/5 
s 2
f 97/241/1 98/242/1 99/243/1 
f 99/243/1 100/244/1 97/241/1 
s 8
f 97/245/2 101/246/2 102/247/2 
f 102/247/2 98/248/2 97/245/2 
s 16
f 98/249/3 102/250/3 103/251/3 
f 103/251/3 99/252/3 98/249/3 
s 32
f 99/253/4 103/254/4 104/255/4 
f 104/255/4 100/256/4 99/253/4 
s 64
f 100/257/5 104/258/5 101/259/5 
f 101/259/5 97/260/5 100/257/5 
s 2
f 105/261/1 106/262/1 107/263/1 
f 107/263/1 108/264/1 105/261/1 
s 8
f 105/265/2 109/266/2 110/267/2 
f 110/267/2 106/268/2 105/265/2 
s 16
f 106/269/3 110/270/3 111/271/3 
f 111/271/3 107/272/3 106/269/3 
s 32
f 107/273/4 111/274/4 112/275/4 
f 112/275/4 108/276/4 107/273/4 
s 64
f 108/277/5 112/278/5 109/279/5 
f 109/279/5 105/280/5 108/277/5 
s 2
f 113/281/1 114/282/1 115/283/1 
f 115/283/1 116/284/1 113/281/1 
s 8
f 113/285/2 117/286/2 118/287/2 
f 118/287/2 114/288/2 113/285/2 
s 16
f 114/289/3 118/290/3 119/291/3 
f 119/291/3 115/292/3 114/289/3 
s 32
f 115/293/4 119/294/4 120/295/4 
f 120/295/4 116/296/4 115/293/4 
s 64
f 116/297/5 120/298/5 117/299/5 
f 117/299/5 113/300/5 116/297/5 
s 2
f 121/301/1 122/302/1 123/303/1 
f 123/303/1 124/304/1 121/301/1 
f 125/305/1 126/306/1 127/307/1 
f 127/307/1 128/308/1 125/305/1 
s 8
f 125/165/2 129/166/2 130/167/2 
f 130/167/2 126/168/2 125/165/2 
s 16
f 126/169/3 130/170/3 131/171/3 
f 131/171/3 127/172/3 126/169/3 
s 32
f 127/173/4 131/174/4 132/175/4 
f 132/175/4 128/176/4 127/173/4 
s 64
f 128/177/5 132/178/5 129/179/5 
f 129/179/5 125/180/5 128/177/5 
s 2
f 133/309/1 134/310/1 135/311/1 
f 135/311/1 136/312/1 133/309/1 
s 8
f 133/145/2 137/146/2 138/147/2 
f 138/147/2 134/148/2 133/145/2 
s 16
f 134/149/3 138/150/3 139/151/3 
f 139/151/3 135/152/3 134/149/3 
s 32
f 135/153/4 139/154/4 140/155/4 
f 140/155/4 136/156/4 135/153/4 
s 64
f 136/157/5 140/158/5 137/159/5 
f 137/159/5 133/160/5 136/157/5 
# 172 faces

#
# object Box001
#

v  -1039.9659 -11.2221 1060.7046
v  -1039.9659 -11.2221 -1020.8286
v  1041.5673 -11.2221 -1020.8286
v  1041.5673 -11.2221 1060.7046
v  -1039.9659 -0.8144 1060.7046
v  1041.5673 -0.8144 1060.7046
v  1041.5673 -0.8144 -1020.8286
v  -1039.9659 -0.8144 -1020.8286
# 8 vertices

vn 0.0000 -1.0000 -0.0000
vn 0.0000 1.0000 -0.0000
vn 0.0000 0.0000 1.0000
vn 1.0000 0.0000 -0.0000
vn 0.0000 0.0000 -1.0000
vn -1.0000 0.0000 -0.0000
# 6 vertex normals

vt 1.0000 0.0000 0.0000
vt 1.0000 1.0000 0.0000
vt 0.0000 1.0000 0.0000
vt 0.0000 0.0000 0.0000
# 4 texture coords

o Box001
g Box001
usemtl 01___Default
s 2
f 141/313/6 142/314/6 143/315/6 
f 143/315/6 144/316/6 141/313/6 
s 4
f 145/316/7 146/313/7 147/314/7 
f 147/314/7 148/315/7 145/316/7 
s 8
f 141/316/8 144/313/8 146/314/8 
f 146/314/8 145/315/8 141/316/8 
s 16
f 144/316/9 143/313/9 147/314/9 
f 147/314/9 146/315/9 144/316/9 
s 32
f 143/316/10 142/313/10 148/314/10 
f 148/314/10 147/315/10 143/316/10 
s 64
f 142/316/11 141/313/11 145/314/11 
f 145/314/11 148/315/11 142/316/11 
# 12 faces

